<?xml version="1.0" encoding="UTF-8" standalone="no"?>
<!-- Created with Inkscape (http://www.inkscape.org/) -->

<svg
   width="63.5mm"
   height="87.04792mm"
   viewBox="0 0 63.5 87.04792"
   version="1.1"
   id="svg5"
   inkscape:version="1.1 (c68e22c387, 2021-05-23)"
   sodipodi:docname="drawing.svg"
   xmlns:inkscape="http://www.inkscape.org/namespaces/inkscape"
   xmlns:sodipodi="http://sodipodi.sourceforge.net/DTD/sodipodi-0.dtd"
   xmlns="http://www.w3.org/2000/svg"
   xmlns:svg="http://www.w3.org/2000/svg">
  <sodipodi:namedview
     id="namedview7"
     pagecolor="#ffffff"
     bordercolor="#666666"
     borderopacity="1.0"
     inkscape:pageshadow="2"
     inkscape:pageopacity="0.0"
     inkscape:pagecheckerboard="0"
     inkscape:document-units="mm"
     showgrid="false"
     fit-margin-top="0"
     fit-margin-left="0"
     fit-margin-right="0"
     fit-margin-bottom="0"
     inkscape:zoom="1.4142136"
     inkscape:cx="66.114484"
     inkscape:cy="148.84598"
     inkscape:window-width="1366"
     inkscape:window-height="705"
     inkscape:window-x="-8"
     inkscape:window-y="-8"
     inkscape:window-maximized="1"
     inkscape:current-layer="layer1" />
  <defs
     id="defs2" />
  <g
     inkscape:label="Layer 1"
     inkscape:groupmode="layer"
     id="layer1"
     transform="translate(-80.962509,-85.063545)">
    <path
       style="fill:#000000;stroke-width:0.264583"
       d="m 120.65915,171.92014 c -0.26955,-0.15666 -0.77407,-0.92695 -1.12114,-1.71175 -0.38876,-0.87905 -0.79558,-1.42691 -1.05957,-1.42691 -0.27024,0 -0.37284,-0.14509 -0.27777,-0.39284 0.0885,-0.2305 -0.0626,-0.507 -0.36544,-0.66909 -0.28391,-0.15195 -0.59312,-0.60024 -0.68714,-0.99623 -0.19932,-0.83943 -0.83591,-1.64601 -1.29912,-1.64601 -0.72634,0 -0.96861,-0.72105 -0.52834,-1.57244 0.40228,-0.77792 0.39165,-0.86992 -0.22378,-1.93723 -1.01141,-1.75405 -1.41309,-3.26256 -1.74029,-6.53553 -0.1668,-1.66856 -0.36233,-3.0928 -0.43451,-3.16498 -0.0722,-0.0722 -0.37536,0.0212 -0.67372,0.20754 -0.45238,0.28252 -0.61863,0.26987 -1.00099,-0.0762 -0.25218,-0.22822 -0.58522,-0.41495 -0.7401,-0.41495 -0.34431,0 -0.66051,0.75088 -0.45574,1.08221 0.0818,0.13239 -0.0369,0.24071 -0.26372,0.24071 -0.547,0 -0.53667,-1.04456 0.0219,-2.21593 0.45478,-0.95366 0.35027,-1.75282 -0.22922,-1.75282 -0.18732,0 -0.49127,0.32742 -0.67544,0.7276 -0.47159,1.02473 -1.14689,1.77475 -2.30643,2.56164 -1.51607,1.02883 -1.64591,0.81626 -0.30025,-0.49158 1.47948,-1.43788 1.69467,-2.18857 1.13571,-3.96181 -0.23568,-0.74765 -0.41318,-1.77384 -0.39444,-2.28042 0.0187,-0.50658 -0.23215,-1.44226 -0.55752,-2.07929 -0.73845,-1.44576 -0.98208,-3.60705 -0.55311,-4.90683 0.17822,-0.54002 0.25905,-1.04684 0.17962,-1.12626 -0.0794,-0.0794 -1.13309,0.27506 -2.34147,0.78776 -3.994779,1.69493 -7.355619,1.49148 -10.674954,-0.64623 -3.568554,-2.2982 -6.448266,-6.48757 -6.464788,-9.4049 -0.0074,-1.30601 0.328944,-1.61186 1.131192,-1.02863 2.059864,1.4975 2.782648,1.84339 4.080898,1.95294 1.201711,0.1014 1.546727,0.0105 2.645834,-0.6968 0.695157,-0.44737 1.89734,-1.45631 2.671519,-2.24207 l 1.407598,-1.42867 -2.723264,-2.5526 c -1.497794,-1.40393 -2.875354,-2.5526 -3.061243,-2.5526 -0.185889,0 -0.339606,0.26789 -0.341593,0.59531 -0.002,0.32742 -0.07619,0.86621 -0.164897,1.19731 -0.144475,0.53925 -0.227683,0.47083 -0.798418,-0.65652 -0.350423,-0.69217 -0.725712,-1.34707 -0.833975,-1.45534 -0.108263,-0.10826 -0.818706,-0.0985 -1.578762,0.0216 -1.519984,0.24028 -1.521022,0.22874 -0.119257,-1.32527 l 0.628585,-0.69685 -0.685956,-1.35367 c -0.377275,-0.74452 -0.619675,-1.35367 -0.538666,-1.35367 0.08101,0 0.614053,0.23812 1.184542,0.52916 1.382825,0.70547 1.541644,0.68134 2.651996,-0.40289 l 0.954516,-0.93206 -0.111059,1.53537 -0.111058,1.53536 1.390219,0.65115 1.390219,0.65114 -0.899604,0.2288 c -0.494782,0.12583 -1.069456,0.28004 -1.277053,0.34267 -0.41789,0.12608 1.133606,1.8268 3.747829,4.1083 1.459393,1.27365 1.548469,1.3117 2.296022,0.9808 0.427744,-0.18934 0.722378,-0.43381 0.654728,-0.54328 -0.263194,-0.42585 2.51615,-1.54077 3.84092,-1.54077 0.72386,0 1.3822,-0.10696 1.463,-0.23769 0.0808,-0.13072 -0.22808,-0.63674 -0.68639,-1.12448 -1.13644,-1.20942 -1.80836,-2.35411 -1.80954,-3.08274 -10e-4,-0.66774 0.59309,-1.94976 1.35934,-2.93296 0.61763,-0.79252 0.62904,-1.52591 0.0287,-1.84702 -0.25466,-0.13622 -1.23693,-0.38744 -2.18281,-0.55828 -2.696227,-0.48695 -2.910422,-0.6219 -2.910422,-1.83362 0,-1.16986 0.471841,-1.6774 2.344462,-2.52183 0.91707,-0.41354 1.04117,-0.55655 0.76828,-0.88536 -0.26795,-0.32286 -0.84053,-0.36236 -3.240455,-0.22356 -2.703419,0.15635 -3.011665,0.1233 -4.246863,-0.45535 -1.241124,-0.58143 -4.356674,-3.59299 -4.356674,-4.21125 0,-0.13464 -0.223733,-0.56084 -0.497186,-0.9471 -0.526283,-0.74341 -1.877843,-5.358683 -2.413901,-8.242937 -0.514715,-2.769414 -1.036224,-3.904907 -2.307313,-5.023764 -1.158318,-1.019593 -2.441765,-1.528868 -2.993548,-1.187848 -0.158047,0.09768 -0.39981,0.473366 -0.53725,0.83486 -0.13744,0.361495 -0.397986,0.608638 -0.578992,0.549207 -0.538793,-0.176905 -0.550364,-1.514599 -0.0182,-2.104456 0.833556,-0.923929 2.744548,-0.519455 6.234394,1.319553 3.415731,1.799952 3.524229,1.83126 10.784917,3.112098 5.576391,0.983716 8.825311,2.567466 12.471591,6.079524 2.06004,1.984208 3.61009,4.785593 5.77871,10.443753 1.54909,4.04174 3.3456,7.98318 4.05587,8.8984 l 0.47805,0.61598 1.28924,-0.67413 c 1.09746,-0.57385 2.12029,-1.5792 2.12029,-2.08407 0,-0.0779 -0.20836,-0.14915 -0.46302,-0.15837 -0.32606,-0.0118 -0.26897,-0.0942 0.193,-0.27852 0.99984,-0.39892 1.59294,-1.04308 1.59294,-1.73009 0,-0.73666 0.16792,-0.76011 1.32167,-0.18454 0.69138,0.3449 0.97732,0.37126 1.36966,0.12624 0.34879,-0.21782 0.64623,-0.22919 1.00287,-0.0383 0.34936,0.18697 0.56052,0.18477 0.67909,-0.007 0.10678,-0.17277 0.35055,-0.0726 0.6424,0.26387 0.25868,0.29826 0.6052,0.54229 0.77003,0.54229 0.16483,0 0.29969,0.10582 0.29969,0.23514 0,0.12933 0.41672,0.31332 0.92604,0.40886 0.50933,0.0956 0.92605,0.26829 0.92605,0.38386 0,0.47365 1.33465,0.77298 2.83858,0.63661 1.01078,-0.0917 1.65152,-0.0391 1.76521,0.14487 0.0982,0.15881 0.21432,1.03707 0.25817,1.95169 0.0438,0.91461 0.16891,1.86533 0.27793,2.1127 0.15381,0.34902 -0.0144,0.53861 -0.75105,0.84639 -0.91195,0.38104 -1.07669,0.63367 -0.95709,1.46774 0.0465,0.32409 -0.0112,0.32783 -0.37674,0.0244 -0.51158,-0.42458 -0.61747,-0.32649 -1.6283,1.50837 -0.66562,1.20826 -0.71938,1.45728 -0.41856,1.93896 0.24393,0.3906 0.26377,0.65071 0.0677,0.88701 -0.15262,0.18389 -0.20692,0.4049 -0.12068,0.49114 0.0863,0.0862 -0.22784,0.53281 -0.69797,0.99237 -0.71819,0.70207 -1.00783,0.81622 -1.81274,0.71444 -0.52689,-0.0666 -1.34562,-0.28261 -1.81941,-0.47999 -0.81199,-0.33826 -0.90247,-0.31783 -1.57606,0.35576 l -0.71462,0.71461 0.6928,0.73304 c 0.53055,0.56135 0.7181,1.07385 0.80082,2.18824 0.0594,0.80036 0.30462,1.88965 0.5449,2.42063 0.4208,0.9299 0.41831,0.96057 -0.0677,0.83348 -0.74794,-0.19559 -2.29455,1.09428 -2.49123,2.07768 -0.14609,0.73045 -0.0299,0.93767 1.07107,1.91094 1.79173,1.58384 2.98367,2.42844 4.50674,3.19344 1.70458,0.85616 1.93115,0.84779 1.93115,-0.0714 0,-0.74226 0.0197,-0.751 2.71198,-1.20341 1.49159,-0.25064 3.02013,-0.51472 3.39675,-0.58684 0.64569,-0.12364 0.74195,-0.36451 1.68666,-4.22055 0.55103,-2.24918 1.12143,-4.08943 1.26754,-4.08943 0.16215,0 0.20568,0.48971 0.11172,1.25677 -0.0847,0.69123 -0.29498,2.88409 -0.46736,4.87304 l -0.31341,3.61627 -1.55912,0.18095 c -0.85751,0.0995 -1.72806,0.34991 -1.93456,0.55641 -0.36829,0.36829 -1.84654,0.76187 -4.00155,1.06539 -1.4848,0.20913 -3.6541,-0.45801 -6.77334,-2.08306 -2.43827,-1.27029 -2.58798,-1.39796 -2.97656,-2.53838 -0.22504,-0.66046 -0.40916,-1.96643 -0.40916,-2.90217 0,-1.63951 -0.022,-1.69583 -0.60404,-1.54974 -0.33222,0.0834 -1.66274,0.27191 -2.95671,0.41894 -2.19585,0.24951 -3.38722,0.70464 -2.60115,0.99371 0.20286,0.0746 0.26352,0.40218 0.16536,0.89297 -0.15278,0.7639 -0.13801,0.77515 1.0181,0.77515 1.41435,0 1.81173,0.26831 2.92821,1.97712 0.47278,0.72362 1.15726,1.46601 1.52106,1.64975 0.3638,0.18374 0.54835,0.33583 0.4101,0.33798 -0.13824,0.002 -0.10848,0.14677 0.0662,0.3214 0.17462,0.17462 0.3175,0.57289 0.3175,0.88503 0,0.31215 0.25456,0.79435 0.56568,1.07156 0.693,0.61747 1.2864,1.96325 1.2864,2.91743 0,0.4898 0.32885,1.01418 1.05834,1.68764 0.84283,0.7781 1.05833,1.1636 1.05833,1.89317 0,0.50386 -0.17036,1.14723 -0.37857,1.4297 -0.34537,0.46856 -0.36616,0.41982 -0.23714,-0.55572 0.16116,-1.21859 -0.0876,-1.53529 -1.49054,-1.89752 -0.68002,-0.17558 -1.05447,-0.50029 -1.45521,-1.26194 -0.69514,-1.32117 -1.07112,-1.42014 -1.58919,-0.41831 -0.39539,0.76461 -0.50725,0.81062 -1.97045,0.81062 h -1.55126 l -0.18467,0.98441 c -0.15177,0.80898 -0.0883,1.06245 0.35613,1.42232 1.06223,0.86015 0.0613,3.17745 -1.17039,2.70959 -0.64638,-0.24554 -1.13855,-1.63239 -1.20218,-3.38749 -0.0637,-1.7564 -0.0388,-1.83966 0.61406,-2.05729 0.5036,-0.16787 0.7266,-0.47301 0.85816,-1.17426 0.0978,-0.5211 0.0752,-1.05002 -0.0502,-1.17539 -0.30768,-0.30768 -1.92563,0.32395 -1.92563,0.75175 0,0.20323 -0.33136,0.33886 -0.82784,0.33886 h -0.82784 l 0.17406,1.31215 c 0.16777,1.26471 0.14509,1.32714 -0.62737,1.72659 l -0.80143,0.41444 v 2.51528 c 0,2.63995 -0.0985,2.26296 2.20774,8.44971 0.40713,1.09218 0.75267,1.61651 1.10994,1.68426 0.71194,0.135 0.90687,0.51607 0.9116,1.78209 0.003,0.74373 0.16998,1.23363 0.53322,1.56236 0.2942,0.26624 0.52917,0.81491 0.52917,1.23563 0,0.4162 0.19811,1.46931 0.44025,2.34024 0.44764,1.61008 0.91499,1.97451 1.6235,1.266 0.24694,-0.24694 0.3175,-0.043 0.3175,0.91774 0,0.98929 -0.079,1.20492 -0.39688,1.08295 -0.25131,-0.0964 -0.39687,0.004 -0.39687,0.27288 0,0.49762 -1.17387,0.5726 -1.94531,0.12426 z m -13.24601,-36.6028 c 0.25809,-1.02831 1.52371,-2.01752 2.79252,-2.18264 1.20344,-0.15662 2.53207,-1.14214 2.22015,-1.64682 -0.0942,-0.15248 0.0143,-0.27723 0.24115,-0.27723 0.22687,0 0.4125,-0.1786 0.4125,-0.39688 0,-0.47496 0.82323,-0.52614 1.27039,-0.079 0.24747,0.24747 0.54984,0.0914 1.36487,-0.70445 0.57585,-0.56229 0.99611,-1.10467 0.93393,-1.20528 -0.0622,-0.10061 -1.36428,-0.19816 -2.89355,-0.21678 -2.00994,-0.0245 -3.21677,-0.18084 -4.3548,-0.56421 -0.86587,-0.29169 -2.41291,-0.60828 -3.43787,-0.70354 -1.8556,-0.17247 -1.86474,-0.17008 -2.14145,0.55772 -0.20146,0.52989 -0.19319,0.83299 0.0301,1.10201 0.44798,0.53978 0.0531,0.77971 -0.49341,0.29978 -0.25555,-0.22443 -0.73253,-0.48969 -1.05996,-0.58947 -0.32742,-0.0998 -0.59531,-0.37524 -0.59531,-0.61213 0,-0.56041 -1.30211,-1.91604 -1.835444,-1.91087 -0.227432,0.002 -1.288711,0.74634 -2.358394,1.65364 -3.390672,2.87597 -4.770105,3.40635 -6.155378,2.36671 -1.21252,-0.90998 -2.108523,-1.16889 -2.904364,-0.83924 -1.421732,0.58889 -1.180525,1.87829 0.591506,3.16194 1.092374,0.79131 1.167042,0.80571 3.515638,0.67764 1.834829,-0.10004 2.137814,-0.074 1.287394,0.1105 -1.213101,0.26324 -2.228401,0.72947 -2.501376,1.14865 -0.259291,0.39816 0.04078,0.97657 0.506623,0.97657 0.415481,0 3.262462,-1.29526 3.503793,-1.59408 0.07276,-0.0901 0.668073,-0.0277 1.322917,0.13853 l 1.190625,0.30233 -1.615076,0.18851 c -1.956095,0.22831 -2.752616,0.71124 -2.329269,1.41223 0.397513,0.65822 1.3802,1.09957 3.198216,1.43639 1.84657,0.34212 3.407179,0.16493 4.900089,-0.55637 1.35724,-0.65575 1.3444,-0.65584 1.13368,0.008 -0.0946,0.29802 -0.0366,0.70498 0.12885,0.90434 0.24834,0.29922 0.62169,0.1775 2.13935,-0.6975 1.21201,-0.69877 1.8906,-1.26755 1.99139,-1.6691 z m -4.44328,-8.3163 c 0.6147,-0.43339 1.33759,-0.52297 5.0715,-0.62847 2.47286,-0.0699 4.67136,-0.0126 5.08761,0.13248 1.51099,0.52674 1.29798,0.008 -0.46996,-1.14559 -2.405,-1.56859 -3.97287,-2.27446 -6.42445,-2.89234 -2.47213,-0.62306 -3.04564,-0.6363 -3.88004,-0.0896 -0.74517,0.48826 -0.8401,1.19904 -0.24024,1.79889 0.37281,0.37281 0.31004,0.45266 -0.66146,0.84138 -0.59035,0.23621 -1.07336,0.50017 -1.07336,0.58658 0,0.16612 1.62674,1.9021 1.7824,1.9021 0.0501,0 0.41371,-0.22745 0.808,-0.50544 z m 15.33512,-0.61979 c 0.45763,-0.36319 0.41487,-1.24034 -0.0695,-1.42622 -0.22013,-0.0845 -0.5802,-0.004 -0.80014,0.1783 -0.52112,0.43249 -0.82553,0.12329 -0.39242,-0.39858 0.26725,-0.32202 0.26832,-0.48323 0.005,-0.80015 -0.42389,-0.51075 -0.91639,-0.50208 -1.7291,0.0304 -0.60099,0.39378 -0.70405,0.39331 -1.31361,-0.006 -0.63666,-0.41715 -0.84105,-0.94717 -0.49767,-1.29055 0.0901,-0.0901 0.34266,0.0151 0.56128,0.2337 0.55089,0.5509 1.24195,0.35535 1.34671,-0.38106 0.1015,-0.71358 -0.62386,-1.62911 -1.29074,-1.62911 -0.70446,0 -0.83287,-0.72745 -0.20593,-1.16658 0.55012,-0.38532 0.54806,-0.39398 -0.40115,-1.68706 -1.53874,-2.09618 -3.12415,-3.41187 -4.36369,-3.62129 -1.92096,-0.32454 -3.60274,0.59203 -4.25759,2.32039 -0.39214,1.03502 0.12578,2.13885 1.72809,3.68298 1.1267,1.0858 4.644,3.64656 5.00868,3.64656 0.071,0 0.81229,0.45407 1.64739,1.00905 0.83509,0.55497 1.81601,1.20333 2.17982,1.4408 0.69066,0.45081 2.19585,0.37911 2.84427,-0.1355 z m -2.35784,-7.47599 c 0.0493,-0.43532 0.21266,-0.94032 0.36312,-1.12222 0.44051,-0.53254 2.24938,-0.4068 2.85461,0.19844 0.64925,0.64924 0.85915,0.65864 1.39858,0.0626 0.39087,-0.43191 0.34102,-0.59417 -0.67062,-2.18282 -1.78982,-2.8107 -2.72126,-4.55744 -3.46447,-6.497 -0.38647,-1.00859 -1.6255,-3.66557 -2.7534,-5.90439 -2.24826,-4.462714 -3.01341,-5.320694 -3.97164,-4.45351 -0.47104,0.426289 -0.56402,0.342578 -2.13077,-1.918295 -2.4119,-3.48047 -4.08303,-4.545268 -4.76937,-3.038915 -0.16888,0.37065 -0.30706,0.92101 -0.30706,1.223022 0,0.465568 -0.0623,0.497419 -0.4094,0.209344 -0.3066,-0.254455 -0.32921,-0.389327 -0.0901,-0.537127 0.40582,-0.25081 -0.0429,-1.407268 -1.12625,-2.902839 -0.69474,-0.95906 -1.549282,-1.400427 -1.549282,-0.800198 0,0.627115 0.635608,1.813723 1.391052,2.596911 0.45618,0.472943 0.69292,0.859896 0.52609,0.859896 -0.16684,0 -0.39856,-0.153808 -0.51493,-0.341797 -0.27619,-0.44616 -3.860026,-2.781645 -4.99828,-3.257238 -1.308554,-0.546749 -3.625758,-0.485179 -4.164991,0.110667 -1.091155,1.205713 -0.775643,3.250271 0.790932,5.125339 0.982826,1.176365 3.724392,3.371215 4.225751,3.383063 0.164083,0.0039 0.431553,0.167571 0.594379,0.363767 0.225869,0.27215 0.17083,0.47003 -0.232187,0.83476 -1.10745,1.00223 -0.399767,2.83622 1.456143,3.77366 0.902865,0.45604 3.444453,0.88347 5.360533,0.9015 l 1.83178,0.0172 -0.11792,1.22717 c -0.25904,2.69587 0.69391,4.24349 4.2188,6.8515 1.93666,1.4329 3.53011,3.1081 4.53099,4.76345 0.93414,1.54494 1.58509,1.71599 1.72788,0.45404 z M 95.09081,102.6629 c 1.013117,-0.94472 1.064837,-1.05485 0.617499,-1.31487 -0.433565,-0.25202 -0.406762,-0.28469 0.239372,-0.29184 0.400182,-0.004 0.727604,-0.11437 0.727604,-0.24432 0,-0.38841 -0.813804,-0.59692 -2.916221,-0.74717 -1.572445,-0.112382 -2.059217,-0.059 -2.31909,0.25407 -0.266611,0.32126 -0.240455,0.50205 0.138096,0.9545 0.409977,0.49001 0.596248,0.52728 1.52534,0.30513 1.474537,-0.35256 2.034955,-0.2915 0.943748,0.10283 -1.039126,0.37551 -1.499283,0.95308 -1.258743,1.57991 0.274672,0.71578 1.132173,0.49298 2.302395,-0.59824 z m -0.267608,-3.274667 c 0,-0.367774 -3.101186,-2.04426 -3.781499,-2.04426 -1.054322,0 -0.814825,1.436116 0.284329,1.704949 3.118581,0.762749 3.49717,0.799482 3.49717,0.339311 z"
       id="path39" />
  </g>
</svg>
